<?xml version="1.0" encoding="UTF-8"?>
<svg width="105px" height="105px" viewBox="0 0 105 105" version="1.1" xmlns="http://www.w3.org/2000/svg" xmlns:xlink="http://www.w3.org/1999/xlink">
    <title>logo-vancado-rgb-do-weiss-auf-gelb-quadratisch</title>
    <g id="logo-vancado-rgb-do-weiss-auf-gelb-quadratisch" stroke="none" stroke-width="1" fill="none" fill-rule="evenodd">
        <rect fill="#D3AC3F" x="0" y="0" width="105" height="105"></rect>
        <g id="DO" transform="translate(10.000000, 35.000000)" fill="#FFFFFF">
            <path d="M19.804553,35 C16.9651143,35 9.5717496,34.5998883 9.5717496,34.5998883 L0,34.5998883 L0.264808097,30.7239902 L5.87603368,29.8543098 L5.87603368,6.06674281 L0,5.19804074 L0.396245692,1.32214255 L9.3088744,1.32214255 C9.3088744,1.32214255 16.9651143,0.921052632 19.804553,0.921052632 C31.1594082,0.921052632 38.6842105,6.80142215 38.6842105,17.3598697 C38.6842105,28.9875643 31.0260377,35 19.804553,35 M18.6167824,5.19804074 C16.9651143,5.19804074 14.5895731,5.39760744 13.268432,5.46706447 L13.268432,30.4559447 C14.6562583,30.5899674 17.032766,30.7239902 19.1434992,30.7239902 C26.1425511,30.7239902 30.5650397,25.9784116 30.5650397,17.8959606 C30.5650397,8.87339398 25.284341,5.19804074 18.6167824,5.19804074" id="Fill-11"></path>
            <path d="M73.8334438,0.921052632 L73.3727381,6.75964953 C75.7262577,8.77978821 77.2211004,12.2387806 77.2211004,17.3455723 C77.2211004,25.5320853 73.0708289,30.402204 66.5768401,30.402204 C60.4161276,30.402204 56.3325114,26.0044413 56.3325114,17.5485765 C56.3325114,12.5012006 57.8498992,9.05310109 60.1985177,6.98344921 L59.7387923,1.15673548 C52.6968578,3.54129133 47.8947368,9.416528 47.8947368,18.1575889 C47.8947368,28.7771806 56.4648417,35 66.1759281,35 C76.9554595,35 85.6578947,28.7098427 85.6578947,16.8722261 C85.6578947,8.75602188 80.721483,3.07487696 73.8334438,0.921052632" id="Fill-13"></path>
            <path d="M63.2195071,17.5 L69.4068505,17.5 L70,0.178066704 C69.0068922,0.0603448276 67.9897661,0 66.9548872,0 C65.4657477,0 64.0215121,0.106840023 62.6315789,0.31557377 L63.2195071,17.5 Z" id="Fill-15"></path>
        </g>
    </g>
</svg>